<svg width="32" height="32" viewBox="0 0 32 32" fill="none" xmlns="http://www.w3.org/2000/svg">
<mask id="path-1-inside-1_4439_3688" fill="white">
<path d="M28.878 24C29.706 24 30.5001 23.6629 31.0856 23.0627C31.6711 22.4626 32 21.6487 32 20.8V3.2C32 2.35131 31.6711 1.53737 31.0856 0.937258C30.5001 0.337142 29.706 0 28.878 0H12.4254C12.9717 0.976 13.2683 2.08 13.2683 3.2H28.878V20.8H14.8293V24M21.0732 8V11.2H11.7073V32H8.58537V22.4H5.46341V32H2.34146V19.2H0V11.2C0 10.3513 0.328919 9.53737 0.914398 8.93726C1.49988 8.33714 2.29396 8 3.12195 8H21.0732ZM10.1463 3.2C10.1463 4.04869 9.81742 4.86263 9.23194 5.46274C8.64646 6.06286 7.85238 6.4 7.02439 6.4C6.1964 6.4 5.40232 6.06286 4.81684 5.46274C4.23136 4.86263 3.90244 4.04869 3.90244 3.2C3.90244 2.35131 4.23136 1.53737 4.81684 0.937258C5.40232 0.337142 6.1964 0 7.02439 0C7.85238 0 8.64646 0.337142 9.23194 0.937258C9.81742 1.53737 10.1463 2.35131 10.1463 3.2Z"/>
</mask>
<path d="M28.878 24C29.706 24 30.5001 23.6629 31.0856 23.0627C31.6711 22.4626 32 21.6487 32 20.8V3.2C32 2.35131 31.6711 1.53737 31.0856 0.937258C30.5001 0.337142 29.706 0 28.878 0H12.4254C12.9717 0.976 13.2683 2.08 13.2683 3.2H28.878V20.8H14.8293V24M21.0732 8V11.2H11.7073V32H8.58537V22.4H5.46341V32H2.34146V19.2H0V11.2C0 10.3513 0.328919 9.53737 0.914398 8.93726C1.49988 8.33714 2.29396 8 3.12195 8H21.0732ZM10.1463 3.2C10.1463 4.04869 9.81742 4.86263 9.23194 5.46274C8.64646 6.06286 7.85238 6.4 7.02439 6.4C6.1964 6.4 5.40232 6.06286 4.81684 5.46274C4.23136 4.86263 3.90244 4.04869 3.90244 3.2C3.90244 2.35131 4.23136 1.53737 4.81684 0.937258C5.40232 0.337142 6.1964 0 7.02439 0C7.85238 0 8.64646 0.337142 9.23194 0.937258C9.81742 1.53737 10.1463 2.35131 10.1463 3.2Z" fill="#938F96"/>
<path d="M28.878 0V-0.5V0ZM12.4254 0V-0.5H11.5725L11.9891 0.244227L12.4254 0ZM13.2683 3.2H12.7683V3.7H13.2683V3.2ZM28.878 3.2H29.378V2.7H28.878V3.2ZM28.878 20.8V21.3H29.378V20.8H28.878ZM14.8293 20.8V20.3H14.3293V20.8H14.8293ZM21.0732 8H21.5732V7.5H21.0732V8ZM21.0732 11.2V11.7H21.5732V11.2H21.0732ZM11.7073 11.2V10.7H11.2073V11.2H11.7073ZM11.7073 32V32.5H12.2073V32H11.7073ZM8.58537 32H8.08537V32.5H8.58537V32ZM8.58537 22.4H9.08537V21.9H8.58537V22.4ZM5.46341 22.4V21.9H4.96341V22.4H5.46341ZM5.46341 32V32.5H5.96341V32H5.46341ZM2.34146 32H1.84146V32.5H2.34146V32ZM2.34146 19.2H2.84146V18.7H2.34146V19.2ZM0 19.2H-0.5V19.7H0V19.2ZM3.12195 8V7.5V8ZM10.1463 3.2H10.6463H10.1463ZM7.02439 6.4V6.9V6.4ZM3.90244 3.2H3.40244H3.90244ZM7.02439 0V-0.5V0ZM28.878 24V24.5C29.8427 24.5 30.7652 24.1071 31.4435 23.4119L31.0856 23.0627L30.7277 22.7136C30.235 23.2186 29.5694 23.5 28.878 23.5V24ZM31.0856 23.0627L31.4435 23.4119C32.1213 22.7171 32.5 21.7774 32.5 20.8H32H31.5C31.5 21.52 31.2208 22.2081 30.7277 22.7136L31.0856 23.0627ZM32 20.8H32.5V3.2H32H31.5V20.8H32ZM32 3.2H32.5C32.5 2.22263 32.1213 1.28288 31.4435 0.588096L31.0856 0.937258L30.7277 1.28642C31.2208 1.79187 31.5 2.47999 31.5 3.2H32ZM31.0856 0.937258L31.4435 0.588096C30.7652 -0.107103 29.8427 -0.5 28.878 -0.5V0V0.5C29.5694 0.5 30.235 0.781386 30.7277 1.28642L31.0856 0.937258ZM28.878 0V-0.5H12.4254V0V0.5H28.878V0ZM12.4254 0L11.9891 0.244227C12.4949 1.14782 12.7683 2.16802 12.7683 3.2H13.2683H13.7683C13.7683 1.99198 13.4485 0.804179 12.8617 -0.244227L12.4254 0ZM13.2683 3.2V3.7H28.878V3.2V2.7H13.2683V3.2ZM28.878 3.2H28.378V20.8H28.878H29.378V3.2H28.878ZM28.878 20.8V20.3H14.8293V20.8V21.3H28.878V20.8ZM14.8293 20.8H14.3293V24H14.8293H15.3293V20.8H14.8293ZM21.0732 8H20.5732V11.2H21.0732H21.5732V8H21.0732ZM21.0732 11.2V10.7H11.7073V11.2V11.7H21.0732V11.2ZM11.7073 11.2H11.2073V32H11.7073H12.2073V11.2H11.7073ZM11.7073 32V31.5H8.58537V32V32.5H11.7073V32ZM8.58537 32H9.08537V22.4H8.58537H8.08537V32H8.58537ZM8.58537 22.4V21.9H5.46341V22.4V22.9H8.58537V22.4ZM5.46341 22.4H4.96341V32H5.46341H5.96341V22.4H5.46341ZM5.46341 32V31.5H2.34146V32V32.5H5.46341V32ZM2.34146 32H2.84146V19.2H2.34146H1.84146V32H2.34146ZM2.34146 19.2V18.7H0V19.2V19.7H2.34146V19.2ZM0 19.2H0.5V11.2H0H-0.5V19.2H0ZM0 11.2H0.5C0.5 10.48 0.779164 9.79187 1.27229 9.28642L0.914398 8.93726L0.556507 8.5881C-0.121326 9.28288 -0.5 10.2226 -0.5 11.2H0ZM0.914398 8.93726L1.27229 9.28642C1.76501 8.78139 2.43061 8.5 3.12195 8.5V8V7.5C2.15731 7.5 1.23475 7.8929 0.556507 8.5881L0.914398 8.93726ZM3.12195 8V8.5H21.0732V8V7.5H3.12195V8ZM10.1463 3.2H9.64634C9.64634 3.92001 9.36718 4.60813 8.87405 5.11358L9.23194 5.46274L9.58983 5.8119C10.2677 5.11712 10.6463 4.17737 10.6463 3.2H10.1463ZM9.23194 5.46274L8.87405 5.11358C8.38134 5.61861 7.71573 5.9 7.02439 5.9V6.4V6.9C7.98903 6.9 8.91159 6.5071 9.58983 5.8119L9.23194 5.46274ZM7.02439 6.4V5.9C6.33305 5.9 5.66744 5.61861 5.17473 5.11358L4.81684 5.46274L4.45895 5.8119C5.13719 6.5071 6.05975 6.9 7.02439 6.9V6.4ZM4.81684 5.46274L5.17473 5.11358C4.6816 4.60813 4.40244 3.92001 4.40244 3.2H3.90244H3.40244C3.40244 4.17737 3.78111 5.11712 4.45895 5.8119L4.81684 5.46274ZM3.90244 3.2H4.40244C4.40244 2.47999 4.6816 1.79187 5.17473 1.28642L4.81684 0.937258L4.45895 0.588096C3.78111 1.28288 3.40244 2.22263 3.40244 3.2H3.90244ZM4.81684 0.937258L5.17473 1.28642C5.66744 0.781386 6.33305 0.5 7.02439 0.5V0V-0.5C6.05975 -0.5 5.13719 -0.107103 4.45895 0.588096L4.81684 0.937258ZM7.02439 0V0.5C7.71574 0.5 8.38134 0.781386 8.87405 1.28642L9.23194 0.937258L9.58983 0.588096C8.91159 -0.107103 7.98903 -0.5 7.02439 -0.5V0ZM9.23194 0.937258L8.87405 1.28642C9.36718 1.79187 9.64634 2.47999 9.64634 3.2H10.1463H10.6463C10.6463 2.22263 10.2677 1.28288 9.58983 0.588096L9.23194 0.937258Z" fill="#938F96" mask="url(#path-1-inside-1_4439_3688)"/>
</svg>
