<svg width="32" height="32" viewBox="0 0 32 32" fill="none" xmlns="http://www.w3.org/2000/svg">
<path d="M2.33337 13.3333V18.6667C2.33337 22.4387 2.33337 24.324 3.50537 25.496C3.79471 25.7853 4.12804 26.0027 4.52271 26.168L4.49737 25.9893C4.33337 24.7653 4.33337 23.2387 4.33337 21.4653V10.536C4.33337 8.76268 4.33337 7.23468 4.49737 6.01201L4.52404 5.83334C4.14289 5.98684 3.79648 6.21536 3.50537 6.50534C2.33337 7.67734 2.33337 9.56268 2.33337 13.3333ZM29 13.3333V18.6667C29 22.4387 29 24.324 27.828 25.496C27.5387 25.7853 27.2054 26.0027 26.8107 26.168L26.836 25.9893C27 24.7653 27 23.2387 27 21.4653V10.536C27 8.76268 27 7.23468 26.836 6.01201L26.8094 5.83334C27.2054 5.99734 27.5387 6.21601 27.828 6.50534C29 7.67734 29 9.56268 29 13.3333Z" fill="#0B235E"/>
<path fill-rule="evenodd" clip-rule="evenodd" d="M7.50537 3.83866C6.33337 5.00932 6.33337 6.89599 6.33337 10.6667V21.3333C6.33337 25.104 6.33337 26.9907 7.50537 28.1613C8.67604 29.3333 10.5627 29.3333 14.3334 29.3333H17C20.7707 29.3333 22.6574 29.3333 23.828 28.1613C25 26.9907 25 25.104 25 21.3333V10.6667C25 6.89599 25 5.00932 23.828 3.83866C22.6574 2.66666 20.7707 2.66666 17 2.66666H14.3334C10.5627 2.66666 8.67604 2.66666 7.50537 3.83866ZM10.6667 22.6667C10.6667 22.4014 10.7721 22.1471 10.9596 21.9595C11.1471 21.772 11.4015 21.6667 11.6667 21.6667H15.6667C15.9319 21.6667 16.1863 21.772 16.3738 21.9595C16.5613 22.1471 16.6667 22.4014 16.6667 22.6667C16.6667 22.9319 16.5613 23.1862 16.3738 23.3738C16.1863 23.5613 15.9319 23.6667 15.6667 23.6667H11.6667C11.4015 23.6667 11.1471 23.5613 10.9596 23.3738C10.7721 23.1862 10.6667 22.9319 10.6667 22.6667ZM11.6667 16.3333C11.4015 16.3333 11.1471 16.4387 10.9596 16.6262C10.7721 16.8138 10.6667 17.0681 10.6667 17.3333C10.6667 17.5985 10.7721 17.8529 10.9596 18.0404C11.1471 18.228 11.4015 18.3333 11.6667 18.3333H19.6667C19.9319 18.3333 20.1863 18.228 20.3738 18.0404C20.5613 17.8529 20.6667 17.5985 20.6667 17.3333C20.6667 17.0681 20.5613 16.8138 20.3738 16.6262C20.1863 16.4387 19.9319 16.3333 19.6667 16.3333H11.6667ZM10.6667 12C10.6667 11.7348 10.7721 11.4804 10.9596 11.2929C11.1471 11.1053 11.4015 11 11.6667 11H19.6667C19.9319 11 20.1863 11.1053 20.3738 11.2929C20.5613 11.4804 20.6667 11.7348 20.6667 12C20.6667 12.2652 20.5613 12.5196 20.3738 12.7071C20.1863 12.8946 19.9319 13 19.6667 13H11.6667C11.4015 13 11.1471 12.8946 10.9596 12.7071C10.7721 12.5196 10.6667 12.2652 10.6667 12Z" fill="#0B235E"/>
</svg>
