<svg width="32" height="32" viewBox="0 0 32 32" fill="none" xmlns="http://www.w3.org/2000/svg">
<path d="M16.8 19.2C17.4365 19.2 18.0469 19.4528 18.497 19.9029C18.9471 20.353 19.2 20.9634 19.2 21.6V22.4C19.2 25.5535 16.224 28.7999 11.2 28.7999C6.17595 28.7999 3.19995 25.5535 3.19995 22.4V21.6C3.19995 20.9634 3.45281 20.353 3.90289 19.9029C4.35298 19.4528 4.96343 19.2 5.59995 19.2H16.8ZM16.8 20.8H5.59995C5.38778 20.8 5.18429 20.8842 5.03427 21.0343C4.88424 21.1843 4.79995 21.3878 4.79995 21.6V22.4C4.79995 24.7007 7.09115 27.1999 11.2 27.1999C15.3088 27.1999 17.6 24.7007 17.6 22.4V21.6C17.6 21.3878 17.5157 21.1843 17.3656 21.0343C17.2156 20.8842 17.0121 20.8 16.8 20.8ZM11.2 8.79995C12.3669 8.79995 13.4861 9.26352 14.3112 10.0887C15.1364 10.9138 15.6 12.033 15.6 13.2C15.6 14.3669 15.1364 15.4861 14.3112 16.3112C13.4861 17.1364 12.3669 17.6 11.2 17.6C10.033 17.6 8.91384 17.1364 8.08868 16.3112C7.26352 15.4861 6.79995 14.3669 6.79995 13.2C6.79995 12.033 7.26352 10.9138 8.08868 10.0887C8.91384 9.26352 10.033 8.79995 11.2 8.79995ZM25.5999 3.19995C26.407 3.2001 27.1842 3.50519 27.7758 4.05409C28.3674 4.603 28.7298 5.35518 28.7903 6.15995L28.7999 6.39995V9.59995C28.8002 10.4073 28.4953 11.1849 27.9464 11.7768C27.3974 12.3688 26.645 12.7314 25.8399 12.792L25.5999 12.8H23.1983L21.2815 15.36C20.4335 16.4896 18.7152 16.032 18.4384 14.7584L18.4112 14.5808L18.4 14.4V12.696L18.2752 12.664C17.6998 12.4902 17.1849 12.158 16.7896 11.7052C16.3943 11.2524 16.1345 10.6975 16.0399 10.104L16.008 9.83835L16 9.59995V6.39995C15.9997 5.59263 16.3046 4.81504 16.8535 4.22307C17.4025 3.6311 18.1549 3.2685 18.96 3.20795L19.2 3.19995H25.5999ZM11.2 10.4C10.8322 10.4 10.4681 10.4724 10.1284 10.6131C9.78873 10.7538 9.48006 10.96 9.22005 11.2201C8.96005 11.4801 8.7538 11.7887 8.61309 12.1284C8.47237 12.4681 8.39995 12.8322 8.39995 13.2C8.39995 13.5677 8.47237 13.9318 8.61309 14.2715C8.7538 14.6112 8.96005 14.9198 9.22005 15.1799C9.48006 15.4399 9.78873 15.6461 10.1284 15.7868C10.4681 15.9275 10.8322 16 11.2 16C11.9426 16 12.6547 15.705 13.1799 15.1799C13.705 14.6547 14 13.9426 14 13.2C14 12.4573 13.705 11.7452 13.1799 11.2201C12.6547 10.695 11.9426 10.4 11.2 10.4ZM25.5999 4.79995H19.2C18.8081 4.8 18.4298 4.94388 18.137 5.2043C17.8441 5.46471 17.657 5.82355 17.6112 6.21275L17.6 6.39995V9.59995C17.6 9.99184 17.7439 10.3701 18.0043 10.6629C18.2647 10.9558 18.6235 11.1429 19.0128 11.1888L19.2 11.2H20V14.4L22.4 11.2H25.5999C25.9918 11.1999 26.3701 11.056 26.6629 10.7956C26.9558 10.5352 27.1429 10.1764 27.1887 9.78715L27.1999 9.59995V6.39995C27.1999 6.00806 27.056 5.62981 26.7956 5.33696C26.5352 5.0441 26.1764 4.857 25.7872 4.81115L25.5999 4.79995Z" fill="#798AA3"/>
</svg>
