<svg width="80" height="80" viewBox="0 0 80 80" fill="none" xmlns="http://www.w3.org/2000/svg">
<g clip-path="url(#clip0_4425_7799)">
<path fill-rule="evenodd" clip-rule="evenodd" d="M29.8541 40.0495C30.1563 40.0618 30.6331 40.0618 30.9137 40.0495C31.1941 40.0372 30.9469 40.0271 30.3641 40.0273C29.7813 40.0273 29.5519 40.0374 29.8541 40.0495ZM19.9861 57.1776C19.9569 57.2463 13.1581 61.0693 13.0629 61.0707C13.0173 61.0713 12.9801 61.0957 12.9801 61.1248C12.9801 61.1992 12.6083 61.3814 12.5579 61.3315C12.5351 61.3089 12.5165 61.324 12.5165 61.3652C12.5165 61.4553 12.1533 61.6521 12.0943 61.5937C12.0715 61.5711 12.0529 61.5864 12.0529 61.6276C12.0529 61.7177 11.6897 61.9143 11.6309 61.8561C11.6079 61.8335 11.5893 61.8458 11.5893 61.8836C11.5893 61.9593 9.95027 62.9063 9.81767 62.9073C9.77227 62.9077 9.73487 62.9316 9.73487 62.9607C9.73487 63.0354 9.36327 63.2174 9.31287 63.1675C9.29007 63.1449 9.27147 63.158 9.27147 63.1968C9.27147 63.2653 8.63167 63.6542 8.46287 63.6885C8.41607 63.698 8.34787 63.7388 8.31127 63.7792C8.22627 63.8731 0.518872 68.2163 0.430272 68.2201C0.393872 68.2217 0.312272 68.2761 0.248672 68.3409C0.123472 68.4688 0.211272 68.5455 0.934672 68.9374C1.08227 69.0174 1.30307 69.1417 1.42527 69.2138C1.54747 69.2861 1.87747 69.4778 2.15827 69.6402C2.43927 69.8024 2.74647 69.9802 2.84107 70.0351C2.93567 70.0901 3.23667 70.2638 3.50987 70.4212C3.78307 70.5787 4.23007 70.8387 4.50327 70.9991C4.77627 71.1595 5.04467 71.3169 5.09927 71.349C5.15387 71.3811 5.57107 71.6185 6.02627 71.877C6.48167 72.1352 6.93607 72.4035 7.03627 72.4732C7.13647 72.5429 7.21847 72.5786 7.21847 72.5524C7.21847 72.5263 7.27047 72.5493 7.33427 72.6033C7.47247 72.7206 8.38267 73.261 9.23827 73.7339C9.31107 73.7741 9.80287 74.0615 10.3311 74.3726C10.8591 74.6837 11.4253 75.0092 11.5893 75.0962C11.7533 75.1831 12.0065 75.3291 12.1523 75.4206C12.4321 75.5962 12.4523 75.6079 13.8859 76.423C14.3893 76.7092 14.9563 77.0413 15.1457 77.1607C15.3353 77.2801 15.5053 77.3777 15.5235 77.3777C15.5419 77.3777 15.9023 77.5845 16.3245 77.8368C16.7465 78.0892 17.1085 78.2958 17.1285 78.2958C17.1487 78.2958 17.4231 78.4534 17.7381 78.6459C18.0533 78.8386 18.4453 79.0705 18.6091 79.1614C18.7731 79.2525 19.1625 79.4729 19.4743 79.6513C19.8949 79.8919 20.0599 79.9565 20.1125 79.9007C20.2731 79.7305 22.1901 78.6845 22.2615 78.7281C22.3059 78.7552 22.3205 78.7467 22.2961 78.7077C22.2403 78.618 24.8065 77.1563 24.9093 77.2193C24.9553 77.2474 24.9697 77.2387 24.9443 77.1981C24.8883 77.1084 28.5831 74.9934 28.6859 75.0564C28.7293 75.0829 28.7443 75.0744 28.7205 75.0364C28.6647 74.9471 35.9323 70.7957 36.0349 70.8585C36.0811 70.8868 36.0955 70.8783 36.0701 70.8375C36.0229 70.7616 39.7011 68.628 39.7877 68.6809C39.8165 68.6985 39.8439 68.6609 39.8487 68.5971C39.8579 68.4781 20.0285 57.0776 19.9861 57.1776Z" fill="#04249C"/>
<path fill-rule="evenodd" clip-rule="evenodd" d="M40.0826 11.5233L40.0994 22.9742L40.4304 23.1682C40.6126 23.2748 40.8584 23.4172 40.9768 23.4843C41.0952 23.5514 41.289 23.6613 41.4072 23.7285C41.6208 23.8497 43.6272 24.9979 44.8344 25.6898C45.1804 25.8882 45.5828 26.1171 45.7284 26.1987C45.8742 26.2801 46.2616 26.5019 46.5894 26.6912C47.6436 27.3006 49.2326 28.2098 49.437 28.321C49.5464 28.3805 49.8444 28.5496 50.0994 28.6971C50.692 29.0399 51.8188 29.6841 52.1192 29.852C52.2466 29.9231 52.9918 30.3503 53.7748 30.801C54.558 31.2517 55.6158 31.8575 56.1258 32.1474C56.6358 32.4374 57.336 32.8366 57.6822 33.0346C58.2894 33.3822 58.4968 33.5002 58.957 33.7612C59.0754 33.8281 59.3328 33.9775 59.5292 34.0927C59.726 34.2084 59.9118 34.2773 59.9428 34.2466C59.9738 34.2159 60.0068 29.0674 60.0162 22.8056C60.0254 16.5438 60.0234 11.4302 60.0114 11.4419C59.9996 11.4538 59.7462 11.3233 59.4486 11.1522C59.1508 10.9811 58.4304 10.5676 57.8476 10.2331C57.265 9.89885 56.7732 9.60635 56.755 9.58299C56.7368 9.55982 56.692 9.53566 56.6556 9.52932C56.6192 9.52318 55.8592 9.09979 54.9668 8.58847C54.0746 8.07734 52.6738 7.27511 51.8544 6.80597C51.0348 6.33664 50.3494 5.93384 50.3312 5.91067C50.313 5.8875 50.2682 5.86354 50.2318 5.8574C50.1954 5.85106 49.8228 5.64847 49.404 5.40707C48.985 5.16567 47.957 4.57692 47.1192 4.09887C46.2814 3.62062 45.2238 3.01681 44.769 2.75719C44.3142 2.49737 43.9198 2.25023 43.8926 2.20805C43.8654 2.16567 43.8426 2.15636 43.842 2.18765C43.8416 2.21894 43.774 2.20112 43.692 2.14804C43.5578 2.06131 41.3996 0.823602 40.4468 0.286933L40.0658 0.0722656L40.0826 11.5233ZM19.437 34.6363C19.1092 34.8223 18.1258 35.3845 17.2516 35.8855C16.3774 36.3867 15.6324 36.8018 15.596 36.8081C15.5596 36.8143 15.5148 36.839 15.4964 36.863C15.478 36.8868 15.1054 37.1105 14.6686 37.3603C14.2316 37.61 13.2632 38.1629 12.5166 38.5892C11.7698 39.0154 10.7044 39.6242 10.149 39.942C9.5936 40.2597 9.1386 40.4987 9.138 40.4729C9.1376 40.4472 9.1146 40.4609 9.0872 40.5036C9.0598 40.5464 8.278 41.0138 7.3498 41.5425C6.4216 42.0713 5.41 42.6507 5.1016 42.8303C4.7932 43.0099 4.51 43.162 4.4724 43.1686C4.4348 43.1749 4.389 43.199 4.3708 43.222C4.3324 43.2707 4.1002 43.4062 1.8392 44.699C0.9188 45.2253 0.1284 45.657 0.0828 45.6584C0.0168 45.6604 0 47.9807 0 57.0346V68.4082L0.149 68.3148C0.231 68.2633 4.7608 65.7009 10.2152 62.6209L20.1324 57.0207V45.6578C20.1324 39.4081 20.11 34.2955 20.0828 34.2965C20.0554 34.2973 19.765 34.4504 19.437 34.6363ZM45.0994 51.2406C43.607 51.6491 42.8228 53.4282 43.3776 55.1476C44.0332 57.18 46.835 57.579 47.8408 55.7834C48.2048 55.1337 48.1954 55.0901 47.6526 54.9081C47.0552 54.7077 46.9788 54.7113 46.9324 54.9408C46.77 55.7448 45.7032 56.1399 45.008 55.6533C44.3004 55.1579 44.2534 53.0567 44.937 52.4684C45.581 51.9139 46.5578 52.1299 46.8792 52.8983C46.9734 53.1233 46.9128 53.1245 47.794 52.8805L48.1378 52.7852L47.9998 52.4567C47.565 51.4204 46.3316 50.9033 45.0994 51.2406ZM26.4238 51.721L26.4236 52.2293L27.2516 52.2091L28.0794 52.1889V54.4879V56.7867H28.6424H29.2052V54.4879V52.1889L30.0332 52.2091L30.8612 52.2293L30.861 51.721V51.2128H28.6424H26.4238V51.721ZM31.5728 51.2483C31.5456 51.277 31.5232 52.5347 31.5232 54.0435V56.7867H32.1192H32.7152V55.7805V54.7741L33.6454 54.7301C34.6838 54.681 34.9876 54.5875 35.3718 54.1982C36.15 53.4102 35.9124 51.8814 34.94 51.4204C34.6046 51.2614 31.7022 51.113 31.5728 51.2483ZM37.8146 53.9972V56.7867H38.4106H39.0066V55.6064V54.4259H40.0994H41.192V55.6064V56.7867H41.755H42.3178V53.9998V51.2128H41.755H41.192V52.2949V53.3767H40.101H39.01L38.9918 52.3113L38.9736 51.2457L38.394 51.2267L37.8146 51.2077V53.9972ZM49.0066 53.9998V56.7867H49.5268H50.047L50.0938 55.8359C50.1194 55.3131 50.121 54.8543 50.0974 54.8162C50.0736 54.7782 50.0758 54.3319 50.1022 53.8243L50.1502 52.9017L50.638 54.8192C50.9064 55.8739 51.1258 56.7492 51.1258 56.7643C51.1258 56.7793 51.3856 56.7833 51.7032 56.7728L52.2806 56.7538L52.7936 54.7539L53.3068 52.7539L53.309 54.7703L53.3112 56.7867H53.8748H54.4386L54.4212 54.0162L54.404 51.2457L53.5342 51.2275L52.6646 51.2093L52.631 51.3915C52.6126 51.4915 52.5046 51.9129 52.391 52.3276C52.2774 52.7424 52.0928 53.4577 51.9808 53.9172C51.7282 54.9551 51.721 54.9584 51.5084 54.1429C51.4128 53.7758 51.259 53.195 51.167 52.8522C51.0748 52.5096 50.9496 52.0374 50.8888 51.803C50.7302 51.1936 50.765 51.2128 49.8264 51.2128H49.0066V53.9998ZM33.6506 52.2555C34.3394 52.3153 34.5694 52.4769 34.587 52.9134C34.61 53.4863 34.3388 53.6736 33.394 53.7372L32.7152 53.7827V52.9896V52.1965L32.8974 52.2012C32.9976 52.2038 33.3364 52.2282 33.6506 52.2555ZM35.6954 56.2292V56.7867H36.2582H36.8212V56.2292V55.6719H36.2582H35.6954V56.2292ZM59.2052 57.522C58.8228 57.7408 58.4206 57.9735 58.3112 58.039C58.202 58.1046 58.0198 58.2052 57.9062 58.2626C57.7928 58.32 57.6296 58.4319 57.5436 58.5113C57.4576 58.5906 57.3716 58.6508 57.3526 58.645C57.2982 58.6288 56.9514 58.7961 56.5894 59.0136C56.4072 59.1231 56.0646 59.3201 55.8278 59.4518C55.591 59.5835 55.159 59.829 54.8676 59.9974C54.5762 60.1659 54.1888 60.3899 54.0066 60.4952C53.8246 60.6006 53.6158 60.7228 53.543 60.7669C53.4702 60.8109 53.3658 60.8679 53.3112 60.8937C53.2566 60.9192 53.063 61.0317 52.8808 61.1436C52.6986 61.2555 52.4752 61.3846 52.3842 61.4307C52.293 61.4767 52.0994 61.5848 51.9536 61.6708C51.616 61.8704 51.4822 61.9458 50.7948 62.3249C50.485 62.4956 50.0976 62.7187 49.9338 62.8209C49.7698 62.9231 49.3228 63.1812 48.9404 63.3942C48.1572 63.8307 47.4806 64.2188 47.1854 64.4008C47.0762 64.4682 46.942 64.5434 46.8874 64.5682C46.8328 64.5929 46.6716 64.685 46.5294 64.7727C46.387 64.8607 46.1338 65.0066 45.9664 65.0975C45.5372 65.3304 45.3686 65.4264 45.0662 65.6102C44.9206 65.6987 44.6524 65.8489 44.4702 65.9439C44.288 66.039 43.856 66.2857 43.51 66.4923C43.164 66.6988 42.7466 66.9408 42.5828 67.0301C42.4188 67.1196 41.9868 67.3644 41.6226 67.5741C41.2582 67.784 40.8858 67.9967 40.7948 68.0466C40.3268 68.3039 40.1026 68.449 40.083 68.5072C40.071 68.5427 40.8404 69.0091 41.7926 69.5433C42.745 70.0776 43.5644 70.5549 43.614 70.604C43.6634 70.6529 43.7202 70.6913 43.74 70.6894C43.8352 70.6797 50.6746 74.5367 50.7358 74.6348C50.7582 74.6704 50.788 74.6942 50.8022 74.6878C50.849 74.6667 51.192 74.8397 51.192 74.8847C51.192 74.9089 51.2294 74.93 51.2748 74.9316C51.3808 74.9354 57.7678 78.5477 57.822 78.6344C57.8442 78.6703 57.874 78.6942 57.8882 78.6879C57.9416 78.6635 58.2782 78.843 58.2782 78.8956C58.2782 78.9257 58.3016 78.9432 58.3304 78.9343C58.3592 78.9251 58.7588 79.1275 59.2186 79.3838L60.0546 79.8498L61.577 78.985C67.8964 75.3946 75.8584 70.9207 75.9044 70.9341C75.9352 70.9432 75.9602 70.9258 75.9602 70.8955C75.9602 70.8351 76.2946 70.6585 76.3742 70.6769C76.4014 70.6832 76.4238 70.6636 76.4238 70.6333C76.4238 70.5729 76.7582 70.3963 76.8378 70.4145C76.865 70.4208 76.8874 70.4012 76.8874 70.3709C76.8874 70.3105 77.2218 70.1339 77.3014 70.1523C77.3286 70.1586 77.351 70.139 77.351 70.1087C77.351 70.06 77.6854 69.876 77.7342 69.8976C77.7446 69.9024 77.7916 69.8681 77.8388 69.8218C77.8858 69.7754 78.3464 69.5014 78.8624 69.2128C79.3784 68.9243 79.8006 68.6694 79.801 68.6465C79.8012 68.6235 75.413 66.0748 70.0496 62.9827C64.6862 59.8906 60.2086 57.3075 60.0992 57.2423L59.9004 57.1239L59.2052 57.522Z" fill="#148BDB"/>
<path fill-rule="evenodd" clip-rule="evenodd" d="M39.6679 0.194887C39.3237 0.402228 36.4689 2.036 36.0255 2.27938C35.8617 2.36929 35.4891 2.58217 35.1977 2.75228C34.9063 2.92259 34.1763 3.34262 33.5753 3.68581C32.9743 4.0292 31.9015 4.64211 31.1911 5.04788C30.4809 5.45385 29.7955 5.84496 29.6679 5.91724C29.5405 5.98952 28.8401 6.38955 28.1117 6.80621C25.8387 8.1061 23.0743 9.68521 21.5057 10.5793L19.9991 11.4382V22.8298C19.9991 30.3573 20.0215 34.2353 20.0653 34.2621C20.1017 34.2844 20.6159 34.0242 21.2077 33.6836C22.8339 32.7483 27.0799 30.321 29.3699 29.0178C29.9891 28.6653 31.1515 28.0005 31.9527 27.5404C32.7541 27.0804 34.7507 25.9374 36.3899 25.0005C38.0289 24.0634 39.5189 23.2095 39.7011 23.1027L40.0323 22.9087L40.0489 11.5069C40.0581 5.23601 40.0433 0.0849792 40.0159 0.0602251C39.9885 0.035471 39.8319 0.096069 39.6679 0.194887ZM59.9661 34.37C59.9473 34.4189 59.9397 39.5583 59.9489 45.7909L59.9659 57.1232L69.9211 62.8649C75.3965 66.023 79.8965 68.5808 79.9211 68.5493C79.9457 68.5176 79.9511 63.3796 79.9329 57.1315L79.8997 45.7715L79.4361 45.5014C78.7265 45.0877 77.7297 44.5122 77.5819 44.4307C77.5091 44.3905 77.1663 44.192 76.8203 43.9898C75.5685 43.2581 71.6767 40.9997 71.3877 40.8374C71.2251 40.7461 70.4063 40.2736 69.5687 39.7876C68.7309 39.3016 66.8087 38.1865 65.2971 37.3098C63.7855 36.4329 62.3849 35.6216 62.1845 35.5069C61.9841 35.3924 61.4573 35.0873 61.0135 34.8292C60.0649 34.2773 60.0109 34.2536 59.9661 34.37ZM26.4229 41.5069V48.5987L30.6779 48.5745C35.9119 48.5446 36.1153 48.5085 37.2197 47.4107C39.2447 45.3978 38.5283 41.8032 35.9657 41.1182C35.8159 41.0782 35.8265 41.0629 36.1399 40.8637C38.3985 39.4287 38.1637 36.0551 35.7253 34.9067C34.8417 34.4906 34.6933 34.4777 30.3467 34.4449L26.4229 34.4153V41.5069ZM41.6547 41.5081V48.5899H43.1447H44.6349L44.6381 46.4425L44.6413 44.2948L45.7581 43.1573L46.8749 42.0196L47.4529 42.9933C47.7707 43.5288 48.2153 44.2768 48.4405 44.6556C48.6659 45.0343 49.2801 46.0743 49.8055 46.9669L50.7607 48.5897L52.6685 48.5899C54.1775 48.5899 54.5659 48.5729 54.5263 48.508C54.4987 48.463 54.2037 48.0129 53.8703 47.5081C53.5371 47.0031 52.5695 45.5278 51.7201 44.2293C50.8707 42.931 49.8951 41.4441 49.5523 40.9253L48.9291 39.982L49.2489 39.6466C49.4247 39.4622 50.0299 38.8392 50.5937 38.2621C52.1059 36.7143 53.4191 35.3679 53.9045 34.8677L54.3331 34.426H52.3433H50.3537L49.4645 35.3863C48.9755 35.9145 48.5305 36.3963 48.4759 36.4567C48.4213 36.5173 47.5421 37.4625 46.5223 38.5574L44.6679 40.5482L44.6507 37.487L44.6335 34.426H43.1441H41.6547V41.5081ZM33.9395 37.004C35.1721 37.551 35.1311 39.3107 33.8733 39.843C33.6003 39.9585 32.0151 40.0514 30.1481 40.0611L29.3369 40.0654V38.454V36.8428L31.5057 36.8646C33.4181 36.8838 33.7059 36.9003 33.9395 37.004ZM33.8049 42.5579C35.0673 42.8034 35.7205 43.9732 35.2281 45.1067C34.8309 46.0207 34.5019 46.1161 31.6381 46.1482L29.3369 46.1741V44.2908V42.4076L31.3733 42.4442C32.4933 42.4644 33.5875 42.5155 33.8049 42.5579ZM20.0653 57.1337C20.0653 57.1519 24.5207 59.7134 29.9659 62.8263C35.4113 65.939 39.8667 68.5057 39.8667 68.5299C39.8667 68.554 35.4487 71.1003 30.0487 74.1883C19.1951 80.3952 20.0245 79.9158 20.0673 79.9573C20.0845 79.974 20.5603 79.7211 21.1249 79.3953C21.6895 79.0694 22.2855 78.7289 22.4495 78.6388C22.6133 78.5485 22.9859 78.3355 23.2773 78.1653C23.5687 77.9952 24.2987 77.575 24.8997 77.2318C25.5007 76.8886 26.5737 76.2755 27.2839 75.8698C27.9941 75.4638 28.6795 75.0727 28.8071 75.0004C29.2953 74.7235 31.7751 73.3066 33.8071 72.1434C34.9727 71.476 36.4179 70.6502 37.0189 70.3082C39.0717 69.1402 39.7011 68.7748 39.7641 68.7152C39.7987 68.6823 39.8817 68.6556 39.9485 68.6556C40.2491 68.6556 39.8553 68.3687 38.4637 67.5742C37.6509 67.1102 36.4345 66.4159 35.7607 66.0313C33.9495 64.9979 24.0815 59.356 22.0521 58.1937C20.3353 57.2105 20.0653 57.0663 20.0653 57.1337ZM18.3573 58.0591C16.9781 58.8415 16.3659 59.2132 16.9197 58.932C17.4081 58.6841 20.0253 57.1808 19.9659 57.1824C19.9295 57.1834 19.2057 57.5779 18.3573 58.0591ZM16.4727 59.1193C16.2251 59.2522 16.2401 59.3077 16.4891 59.1801C16.5985 59.1243 16.6879 59.0645 16.6879 59.0473C16.6879 59.0051 16.6807 59.0075 16.4727 59.1193ZM16.0091 59.3815C15.7615 59.5146 15.7765 59.5701 16.0255 59.4425C16.1349 59.3865 16.2243 59.3267 16.2243 59.3097C16.2243 59.2675 16.2171 59.2698 16.0091 59.3815ZM15.5455 59.6439C15.2979 59.7768 15.3129 59.8323 15.5621 59.7047C15.6713 59.6489 15.7607 59.5891 15.7607 59.5718C15.7607 59.5297 15.7535 59.532 15.5455 59.6439ZM15.0819 59.9061C14.8343 60.0392 14.8493 60.0947 15.0985 59.9671C15.2077 59.9111 15.2971 59.8513 15.2971 59.8342C15.2971 59.7921 15.2899 59.7944 15.0819 59.9061ZM14.6183 60.1685C14.3707 60.3014 14.3857 60.3569 14.6349 60.2293C14.7441 60.1735 14.8335 60.1137 14.8335 60.0964C14.8335 60.0543 14.8265 60.0566 14.6183 60.1685ZM14.1547 60.4307C13.9071 60.5638 13.9223 60.6192 14.1713 60.4917C14.2805 60.4357 14.3699 60.3759 14.3699 60.3588C14.3699 60.3166 14.3629 60.319 14.1547 60.4307ZM13.6911 60.6931C13.4435 60.826 13.4587 60.8814 13.7077 60.7539C13.8169 60.6981 13.9063 60.6383 13.9063 60.621C13.9063 60.5788 13.8993 60.5812 13.6911 60.6931ZM13.2275 60.9553C12.9799 61.0884 12.9951 61.1438 13.2441 61.0163C13.3535 60.9603 13.4429 60.9004 13.4429 60.8834C13.4429 60.8412 13.4357 60.8436 13.2275 60.9553ZM12.7641 61.2177C12.5165 61.3506 12.5315 61.406 12.7805 61.2785C12.8899 61.2227 12.9793 61.1628 12.9793 61.1456C12.9793 61.1034 12.9721 61.1058 12.7641 61.2177ZM12.3005 61.4799C12.0529 61.613 12.0679 61.6684 12.3169 61.5409C12.4263 61.4848 12.5157 61.425 12.5157 61.408C12.5157 61.3658 12.5085 61.3682 12.3005 61.4799ZM11.8369 61.7423C11.5893 61.8752 11.6043 61.9306 11.8535 61.8031C11.9627 61.7472 12.0521 61.6874 12.0521 61.6702C12.0521 61.628 12.0449 61.6304 11.8369 61.7423ZM10.7275 62.3681C10.2723 62.6243 9.86991 62.8653 9.83351 62.9034C9.79711 62.9414 9.87171 62.9142 9.99911 62.843C11.6001 61.9473 11.6789 61.9001 11.5719 61.9017C11.5629 61.9019 11.1829 62.1116 10.7275 62.3681ZM9.51891 63.0537C9.27131 63.1867 9.28651 63.2422 9.53551 63.1147C9.64471 63.0586 9.73411 62.9988 9.73411 62.9818C9.73411 62.9396 9.72711 62.942 9.51891 63.0537ZM8.82371 63.4474C8.59591 63.5751 8.40971 63.6947 8.40971 63.7133C8.40971 63.7495 9.12951 63.3614 9.23411 63.2687C9.35071 63.1655 9.23971 63.2137 8.82371 63.4474ZM6.23871 64.9092C5.09931 65.5534 4.14571 66.1032 4.11951 66.1309C4.02931 66.2267 8.16751 63.9165 8.30711 63.7931C8.45391 63.6632 8.20731 63.7965 6.23871 64.9092ZM3.82371 66.2667C3.57611 66.3998 3.59111 66.4553 3.84011 66.3277C3.94951 66.2717 4.03891 66.2119 4.03891 66.1949C4.03891 66.1527 4.03171 66.1551 3.82371 66.2667ZM3.36011 66.5291C3.11251 66.6622 3.12751 66.7175 3.37651 66.5899C3.48591 66.5341 3.57531 66.4743 3.57531 66.4573C3.57531 66.4149 3.56811 66.4172 3.36011 66.5291ZM2.89651 66.7913C2.64891 66.9244 2.66391 66.9799 2.91311 66.8523C3.02231 66.7963 3.11171 66.7365 3.11171 66.7194C3.11171 66.6773 3.10451 66.6796 2.89651 66.7913ZM2.43291 67.0537C2.18531 67.1868 2.20031 67.2421 2.44951 67.1145C2.55871 67.0587 2.64811 66.9989 2.64811 66.9818C2.64811 66.9395 2.64091 66.9418 2.43291 67.0537ZM1.96931 67.3159C1.72171 67.449 1.73671 67.5044 1.98591 67.3769C2.09511 67.3209 2.18451 67.2611 2.18451 67.244C2.18451 67.2019 2.17751 67.2042 1.96931 67.3159ZM1.50571 67.5783C1.25811 67.7114 1.27331 67.7666 1.52231 67.6391C1.63151 67.5833 1.72091 67.5235 1.72091 67.5064C1.72091 67.464 1.71391 67.4664 1.50571 67.5783ZM1.04211 67.8407C0.794506 67.9736 0.809706 68.029 1.05871 67.9015C1.16791 67.8455 1.25731 67.7857 1.25731 67.7686C1.25731 67.7264 1.25031 67.7288 1.04211 67.8407ZM0.578506 68.1029C0.330906 68.236 0.346106 68.2912 0.595106 68.1637C0.704306 68.1079 0.793906 68.048 0.793906 68.031C0.793906 67.9886 0.786706 67.991 0.578506 68.1029Z" fill="#042B94"/>
<path fill-rule="evenodd" clip-rule="evenodd" d="M32.8654 53.751C32.966 53.766 33.115 53.7656 33.1964 53.75C33.278 53.7346 33.1956 53.7221 33.0134 53.7227C32.8314 53.7231 32.7646 53.7359 32.8654 53.751Z" fill="#0B51B0"/>
<path fill-rule="evenodd" clip-rule="evenodd" d="M40.132 0.0949827C40.132 0.113004 40.2214 0.173404 40.3308 0.229447C40.44 0.285292 40.5294 0.316383 40.5294 0.298362C40.5294 0.280341 40.44 0.219743 40.3308 0.163898C40.2214 0.107855 40.132 0.0769618 40.132 0.0949827ZM41.3904 0.816218C41.3904 0.834239 41.4798 0.894837 41.589 0.950682C41.6982 1.00673 41.7876 1.03782 41.7876 1.0196C41.7876 1.00158 41.6982 0.941177 41.589 0.885134C41.4798 0.829288 41.3904 0.798197 41.3904 0.816218ZM44.834 2.78348C44.834 2.8015 44.9234 2.86209 45.0328 2.91794C45.142 2.97398 45.2314 3.00488 45.2314 2.98686C45.2314 2.96883 45.142 2.90843 45.0328 2.85239C44.9234 2.79635 44.834 2.76545 44.834 2.78348ZM46.5558 3.7671C46.5558 3.78513 46.6452 3.84553 46.7546 3.90157C46.8638 3.95761 46.9532 3.98851 46.9532 3.97048C46.9532 3.95246 46.8638 3.89187 46.7546 3.83602C46.6452 3.77998 46.5558 3.74908 46.5558 3.7671ZM52.5162 7.17683C52.5162 7.19485 52.6056 7.25545 52.7148 7.3115C52.8242 7.36734 52.9136 7.39843 52.9136 7.38041C52.9136 7.36239 52.8242 7.30179 52.7148 7.24575C52.6056 7.1899 52.5162 7.15881 52.5162 7.17683ZM52.9798 7.43923C52.9798 7.45725 53.0692 7.51785 53.1784 7.57369C53.2876 7.62973 53.377 7.66063 53.377 7.64261C53.377 7.62459 53.2876 7.56399 53.1784 7.50814C53.0692 7.4521 52.9798 7.42121 52.9798 7.43923ZM58.94 10.849C58.94 10.867 59.0294 10.9276 59.1386 10.9836C59.248 11.0395 59.3374 11.0706 59.3374 11.0525C59.3374 11.0345 59.248 10.9739 59.1386 10.9179C59.0294 10.862 58.94 10.8309 58.94 10.849ZM59.9172 11.4169C59.9834 11.5009 59.9968 13.8517 59.9834 22.9088C59.9742 29.1711 59.9888 34.295 60.0162 34.295C60.1386 34.295 60.0726 11.4967 59.95 11.4015C59.847 11.3215 59.8434 11.3232 59.9172 11.4169ZM19.5194 34.5293C19.2718 34.6622 19.287 34.7176 19.536 34.5901C19.6452 34.5341 19.7346 34.4745 19.7346 34.4572C19.7346 34.4151 19.7276 34.4174 19.5194 34.5293ZM19.0558 34.7915C18.8084 34.9246 18.8234 34.9798 19.0724 34.8523C19.1818 34.7965 19.2712 34.7367 19.2712 34.7196C19.2712 34.6774 19.264 34.6798 19.0558 34.7915ZM13.0956 38.2014C12.848 38.3343 12.8632 38.3898 13.1122 38.2622C13.2214 38.2062 13.3108 38.1466 13.3108 38.1294C13.3108 38.0872 13.3038 38.0896 13.0956 38.2014ZM12.632 38.4636C12.3844 38.5967 12.3996 38.652 12.6486 38.5244C12.7578 38.4686 12.8472 38.4088 12.8472 38.3917C12.8472 38.3496 12.8402 38.3519 12.632 38.4636ZM7.93004 41.1521C7.68244 41.2852 7.69764 41.3407 7.94664 41.2131C8.05584 41.1571 8.14524 41.0973 8.14524 41.0802C8.14524 41.0381 8.13824 41.0404 7.93004 41.1521ZM3.22804 43.8406C2.98044 43.9737 2.99564 44.0291 3.24464 43.9016C3.35404 43.8456 3.44344 43.7858 3.44344 43.7687C3.44344 43.7266 3.43624 43.7289 3.22804 43.8406ZM1.50624 44.8243C1.25864 44.9573 1.27384 45.0128 1.52284 44.8852C1.63204 44.8292 1.72144 44.7694 1.72144 44.7524C1.72144 44.7102 1.71444 44.7126 1.50624 44.8243ZM26.8704 52.2451C27.0982 52.258 27.4706 52.258 27.6982 52.2451C27.926 52.2325 27.7396 52.222 27.2844 52.222C26.829 52.222 26.6428 52.2325 26.8704 52.2451ZM29.5856 52.2451C29.8134 52.258 30.1858 52.258 30.4136 52.2451C30.6412 52.2325 30.4548 52.222 29.9996 52.222C29.5444 52.222 29.358 52.2325 29.5856 52.2451ZM32.8308 52.243C32.9126 52.2586 33.0468 52.2586 33.1288 52.243C33.2106 52.2273 33.1436 52.2144 32.9798 52.2144C32.8158 52.2144 32.7488 52.2273 32.8308 52.243ZM50.088 54.3605C50.088 54.631 50.0998 54.7417 50.114 54.6065C50.1284 54.4712 50.1284 54.25 50.114 54.1148C50.0998 53.9795 50.088 54.09 50.088 54.3605ZM50.0876 56.0983C50.0878 56.3508 50.0998 56.446 50.1142 56.31C50.1284 56.1739 50.1282 55.9674 50.1136 55.8509C50.099 55.7345 50.0872 55.8458 50.0876 56.0983ZM41.2578 69.2752C41.2578 69.2932 41.3472 69.3538 41.4566 69.4098C41.5658 69.4657 41.6552 69.4968 41.6552 69.4787C41.6552 69.4607 41.5658 69.4001 41.4566 69.3443C41.3472 69.2882 41.2578 69.2571 41.2578 69.2752ZM41.7214 69.5376C41.7214 69.5556 41.8108 69.6162 41.9202 69.672C42.0294 69.7281 42.1188 69.759 42.1188 69.7409C42.1188 69.7229 42.0294 69.6625 41.9202 69.6065C41.8108 69.5506 41.7214 69.5195 41.7214 69.5376ZM42.6486 70.0621C42.6486 70.0802 42.738 70.1408 42.8472 70.1966C42.9566 70.2527 43.046 70.2835 43.046 70.2655C43.046 70.2475 42.9566 70.1871 42.8472 70.1311C42.738 70.0752 42.6486 70.0441 42.6486 70.0621ZM48.8076 73.5376C48.8076 73.5556 48.897 73.616 49.0062 73.6721C49.1154 73.7279 49.2048 73.759 49.2048 73.741C49.2048 73.723 49.1154 73.6624 49.0062 73.6065C48.897 73.5505 48.8076 73.5196 48.8076 73.5376ZM49.7346 74.0622C49.7346 74.0802 49.8242 74.1406 49.9334 74.1967C50.0426 74.2525 50.132 74.2836 50.132 74.2656C50.132 74.2476 50.0426 74.187 49.9334 74.1311C49.8242 74.0751 49.7346 74.0442 49.7346 74.0622ZM54.0394 76.4883C54.0394 76.5063 54.1288 76.5669 54.238 76.623C54.3472 76.6788 54.4366 76.7099 54.4366 76.6919C54.4366 76.6739 54.3472 76.6133 54.238 76.5572C54.1288 76.5014 54.0394 76.4703 54.0394 76.4883ZM64.089 77.5456C63.8414 77.6787 63.8564 77.7339 64.1056 77.6064C64.2148 77.5506 64.3042 77.4908 64.3042 77.4737C64.3042 77.4315 64.2972 77.4339 64.089 77.5456ZM55.8936 77.5375C55.8936 77.5555 55.983 77.6161 56.0924 77.6721C56.2016 77.728 56.291 77.7591 56.291 77.7411C56.291 77.723 56.2016 77.6624 56.0924 77.6064C55.983 77.5506 55.8936 77.5195 55.8936 77.5375ZM63.6254 77.808C63.3778 77.9409 63.393 77.9963 63.642 77.8688C63.7512 77.8128 63.8406 77.7531 63.8406 77.7359C63.8406 77.6937 63.8336 77.6961 63.6254 77.808ZM63.1618 78.0702C62.9142 78.2033 62.9294 78.2585 63.1784 78.131C63.2876 78.0751 63.377 78.0153 63.377 77.9983C63.377 77.9561 63.37 77.9585 63.1618 78.0702ZM56.8208 78.0621C56.8208 78.0801 56.9102 78.1407 57.0194 78.1967C57.1288 78.2526 57.2182 78.2837 57.2182 78.2657C57.2182 78.2476 57.1288 78.187 57.0194 78.131C56.9102 78.0751 56.8208 78.0441 56.8208 78.0621Z" fill="#0C8CD7"/>
</g>
<defs>
<clipPath id="clip0_4425_7799">
<rect width="80" height="80" fill="white"/>
</clipPath>
</defs>
</svg>
