<svg width="32" height="32" viewBox="0 0 32 32" fill="none" xmlns="http://www.w3.org/2000/svg">
<path fill-rule="evenodd" clip-rule="evenodd" d="M19.3328 12C23.3828 12 26.6661 15.2832 26.6661 19.3333C26.6661 20.8767 26.1893 22.3086 25.3751 23.49L29.1178 27.2328L27.2322 29.1184L23.4895 25.3757C22.308 26.1899 20.8761 26.6667 19.3328 26.6667C15.2826 26.6667 11.9994 23.3834 11.9994 19.3333C11.9994 15.2832 15.2826 12 19.3328 12ZM19.3328 14.6667C16.7554 14.6667 14.6661 16.7561 14.6661 19.3333C14.6661 21.9107 16.7555 24 19.3328 24C21.9101 24 23.9994 21.9106 23.9994 19.3333C23.9994 16.756 21.91 14.6667 19.3328 14.6667ZM10.6913 18.6666C10.6745 18.8867 10.6661 19.1089 10.666 19.3333C10.666 20.0217 10.7463 20.6914 10.8979 21.3334L2.66602 21.3333V18.6667L10.6913 18.6666ZM7.99945 4V17.3333H3.99939V4H7.99945ZM13.3328 9.33331L13.3326 13.0796C12.1495 14.2151 11.2878 15.683 10.898 17.3332L9.33277 17.3333V9.33331H13.3328ZM18.6661 6.66669V10.6919C17.2426 10.7994 15.868 11.2589 14.6661 12.0291V6.66662L18.6661 6.66669ZM23.9994 8L23.9995 12.0291C22.7975 11.2589 21.423 10.7994 19.9995 10.6919V8H23.9994Z" fill="#0B235E"/>
</svg>
