<svg width="32" height="32" viewBox="0 0 32 32" fill="none" xmlns="http://www.w3.org/2000/svg">
<path d="M20 5.33325C18.5856 5.33325 17.229 5.89515 16.2288 6.89535C15.2286 7.89554 14.6667 9.2521 14.6667 10.6666C14.6667 12.0811 15.2286 13.4376 16.2288 14.4378C17.229 15.438 18.5856 15.9999 20 15.9999C21.4145 15.9999 22.7711 15.438 23.7713 14.4378C24.7715 13.4376 25.3334 12.0811 25.3334 10.6666C25.3334 9.2521 24.7715 7.89554 23.7713 6.89535C22.7711 5.89515 21.4145 5.33325 20 5.33325ZM20 7.86659C20.3677 7.86659 20.7318 7.93901 21.0716 8.07972C21.4113 8.22044 21.7199 8.42668 21.9799 8.68669C22.2399 8.94669 22.4462 9.25536 22.5869 9.59507C22.7276 9.93478 22.8 10.2989 22.8 10.6666C22.8 11.0343 22.7276 11.3984 22.5869 11.7381C22.4462 12.0778 22.2399 12.3865 21.9799 12.6465C21.7199 12.9065 21.4113 13.1127 21.0716 13.2534C20.7318 13.3942 20.3677 13.4666 20 13.4666C19.6323 13.4666 19.2682 13.3942 18.9285 13.2534C18.5888 13.1127 18.2801 12.9065 18.0201 12.6465C17.7601 12.3865 17.5539 12.0778 17.4132 11.7381C17.2725 11.3984 17.2 11.0343 17.2 10.6666C17.2 9.92398 17.495 9.21179 18.0201 8.68669C18.5452 8.16158 19.2574 7.86659 20 7.86659ZM5.33337 9.33325V13.3333H1.33337V15.9999H5.33337V19.9999H8.00004V15.9999H12V13.3333H8.00004V9.33325H5.33337ZM20 17.3333C16.44 17.3333 9.33337 19.1066 9.33337 22.6666V26.6666H30.6667V22.6666C30.6667 19.1066 23.56 17.3333 20 17.3333ZM20 19.8666C23.96 19.8666 28.1334 21.8133 28.1334 22.6666V24.1333H11.8667V22.6666C11.8667 21.8133 16 19.8666 20 19.8666Z" fill="#798AA3"/>
</svg>
