<svg width="32" height="32" viewBox="0 0 32 32" fill="none" xmlns="http://www.w3.org/2000/svg">
<path d="M31.806 10.5376C31.7111 10.364 31.5783 10.2053 31.414 10.0688L19.414 0.4688C19.2434 0.337331 19.045 0.231148 18.828 0.1552C18.768 0.1328 18.704 0.12 18.64 0.1024C18.4726 0.0570075 18.2984 0.0295686 18.122 0.0208C18.08 0.0176 18.042 0 18 0H4C1.794 0 0 1.4352 0 3.2V28.8C0 30.5648 1.794 32 4 32H28C30.206 32 32 30.5648 32 28.8V11.2C32 11.1664 31.978 11.136 31.974 11.1008C31.963 10.9597 31.9287 10.8203 31.872 10.6864C31.8533 10.6352 31.8313 10.5856 31.806 10.5376ZM25.172 9.6H20V5.4624L25.172 9.6ZM4 28.8V3.2H16V11.2C16 11.6243 16.2107 12.0313 16.5858 12.3314C16.9609 12.6314 17.4696 12.8 18 12.8H28L28.004 28.8H4Z" fill="#938F96"/>
</svg>
