<svg width="32" height="32" viewBox="0 0 32 32" fill="none" xmlns="http://www.w3.org/2000/svg">
<path d="M25.3333 21.3334C25.3333 25.1041 25.3333 26.9907 24.1613 28.1614C22.9906 29.3334 21.104 29.3334 17.3333 29.3334H14.6666C10.896 29.3334 9.00929 29.3334 7.83863 28.1614C6.66663 26.9907 6.66663 25.1041 6.66663 21.3334V16.0001M6.66663 10.6667C6.66663 6.89608 6.66663 5.00941 7.83863 3.83875C9.00929 2.66675 10.896 2.66675 14.6666 2.66675H17.3333C21.104 2.66675 22.9906 2.66675 24.1613 3.83875C25.3333 5.00941 25.3333 6.89608 25.3333 10.6667V16.0001" stroke="#0B235E" stroke-width="1.5" stroke-linecap="round"/>
<path d="M6.66663 5.43481C5.36663 5.56281 4.49196 5.85215 3.83863 6.50548C2.66663 7.67615 2.66663 9.56281 2.66663 13.3335V18.6668C2.66663 22.4375 2.66663 24.3241 3.83863 25.4948C4.49196 26.1481 5.36663 26.4375 6.66663 26.5655M25.3333 5.43481C26.6333 5.56281 27.508 5.85215 28.1613 6.50548C29.3333 7.67615 29.3333 9.56281 29.3333 13.3335V18.6668C29.3333 22.4375 29.3333 24.3241 28.1613 25.4948C27.508 26.1481 26.6333 26.4375 25.3333 26.5655" stroke="#0B235E" stroke-width="1.5"/>
<path d="M12 17.3333H20M12 12H20M12 22.6667H16" stroke="#0B235E" stroke-width="1.5" stroke-linecap="round"/>
</svg>
