<svg width="32" height="32" viewBox="0 0 32 32" fill="none" xmlns="http://www.w3.org/2000/svg">
<path d="M18.6666 16H20.6666V19.76L23.92 21.64L22.92 23.3733L18.6666 20.92V16ZM5.33329 2.66666H24C24.7072 2.66666 25.3855 2.94761 25.8856 3.4477C26.3857 3.9478 26.6666 4.62608 26.6666 5.33332V13.4667C28.32 15.1467 29.3333 17.4533 29.3333 20C29.3333 22.4753 28.35 24.8493 26.5996 26.5997C24.8493 28.35 22.4753 29.3333 20 29.3333C17.4533 29.3333 15.1466 28.32 13.4666 26.6667H5.33329C4.62605 26.6667 3.94777 26.3857 3.44767 25.8856C2.94758 25.3855 2.66663 24.7072 2.66663 24V5.33332C2.66663 4.62608 2.94758 3.9478 3.44767 3.4477C3.94777 2.94761 4.62605 2.66666 5.33329 2.66666ZM5.33329 20V24H11.56C10.9866 22.7867 10.6666 21.4267 10.6666 20H5.33329ZM5.33329 10.6667H13.3333V6.66666H5.33329V10.6667ZM24 10.6667V6.66666H16V10.6667H24ZM5.33329 17.3333H11.0533C11.5066 15.8 12.3466 14.4267 13.4666 13.3333H5.33329V17.3333ZM20 13.5333C18.2849 13.5333 16.6401 14.2146 15.4273 15.4274C14.2146 16.6401 13.5333 18.2849 13.5333 20C13.5333 23.5733 16.4266 26.4667 20 26.4667C20.8492 26.4667 21.6901 26.2994 22.4746 25.9744C23.2592 25.6494 23.9721 25.1731 24.5726 24.5726C25.1731 23.9721 25.6494 23.2592 25.9744 22.4747C26.2994 21.6901 26.4666 20.8492 26.4666 20C26.4666 16.4267 23.5733 13.5333 20 13.5333Z" fill="#798AA3"/>
</svg>
